<?xml version="1.0" encoding="UTF-8"?>
<svg width="66px" height="92px" viewBox="0 0 66 92" version="1.1" xmlns="http://www.w3.org/2000/svg" xmlns:xlink="http://www.w3.org/1999/xlink">
    <title>D8B43226-6136-469E-AC06-5CC3F2FFBFA3</title>
    <g id="Light" stroke="none" stroke-width="1" fill="none" fill-rule="evenodd">
        <g id="2---Horizontal-Version" transform="translate(-32.000000, -438.000000)" fill="#323232">
            <g id="RA-Logo" transform="translate(32.000000, 438.000000)">
                <g id="branding/logo/large/use-on-dark-bkgd" transform="translate(2.000000, 0.000000)">
                    <path d="M33.9118644,7.70230364 C47.7302161,7.70230364 58.9322034,18.9390613 58.9322034,32.8003044 C58.9322034,46.6615474 47.7302161,57.8983051 33.9118644,57.8983051 C20.0935128,57.8983051 8.89152542,46.6615474 8.89152542,32.8003044 C8.89152542,32.0205241 8.92697697,31.2490497 8.99635151,30.4874144 C9.33800864,30.5082988 9.68220393,30.5186679 10.0288136,30.5186679 C19.450417,30.5186679 27.0881356,22.8572422 27.0881356,13.4063947 C27.0881356,11.8214767 26.8733349,10.2868838 26.4713423,8.83031065 C28.8212552,8.09745798 31.320556,7.70230364 33.9118644,7.70230364 Z M37.1466552,20.251304 L32.7385257,20.2706979 L24.8135593,41.6949595 L28.2569273,44.7237069 L39.6658627,39.3599322 L41.5354509,44.493695 L45.440899,43.0779394 L37.1466552,20.251304 Z M32.9898664,20.9492907 L33.2218733,21.6670596 L26.0020146,41.1978934 L25.4134906,41.46999 L32.9898664,20.9492907 Z M33.473214,22.3458466 L33.7052208,23.0438333 L27.180609,40.6527305 L26.6058122,40.9186212 L33.473214,22.3458466 Z M33.9372276,23.7422083 L34.1692344,24.4209953 L28.3541768,40.1100889 L27.7490256,40.389943 L33.9372276,23.7422083 Z M34.4207687,25.1191761 L34.652582,25.817357 L29.5304516,39.5660896 L28.9496613,39.8346954 L34.4207687,25.1191761 Z M34.9483907,26.4059621 L38.2367007,35.4351862 L30.1311557,39.2881748 L34.9483907,26.4059621 Z M10.8225915,8.16398614 L10.8225915,26.4540035 L6.72411075,26.4540035 L6.72411075,8.16398614 L10.8225915,8.16398614 Z M5.91685772,6.69188794 L5.91685772,24.9821999 L1.818377,24.9821999 L1.818377,6.69188794 L5.91685772,6.69188794 Z M15.5938261,5.8443341 L15.5938261,24.1340569 L11.4956035,24.1340569 L11.4956035,5.8443341 L15.5938261,5.8443341 Z M20.365577,2.60760348 L20.365577,20.8973262 L16.2668381,20.8973262 L16.2668381,2.60760348 L20.365577,2.60760348 Z" id="Combined-Shape"></path>
                </g>
                <path d="M2.17690564,91.6711066 L2.57646427,90.8039959 L5.84182274,90.8039959 L6.25515925,91.6711066 L8.43206489,91.6711066 L4.38136705,83 L4.02314207,83 L0,91.6711066 L2.17690564,91.6711066 Z M5.15292855,89.335502 L3.21024693,89.335502 L4.1746988,87.2096824 L4.20225456,87.2096824 L5.15292855,89.335502 Z M11.5360253,91.6711066 L11.5360253,86.6782275 L14.7600501,91.6711066 L16.8680663,91.6711066 L16.8680663,83.2797131 L14.8564953,83.2797131 L14.8564953,88.2586066 L11.6462484,83.2797131 L9.51067637,83.2797131 L9.51067637,91.6711066 L11.5360253,91.6711066 Z M20.1235834,91.6711066 L20.5231421,90.8039959 L23.7885005,90.8039959 L24.2018371,91.6711066 L26.3787427,91.6711066 L22.3280449,83 L21.9698199,83 L17.9466778,91.6711066 L20.1235834,91.6711066 Z M23.0996063,89.335502 L21.1569247,89.335502 L22.1213766,87.2096824 L22.1489324,87.2096824 L23.0996063,89.335502 Z M33.0787308,91.6711066 L33.0787308,89.9089139 L29.4827031,89.9089139 L29.4827031,83.2797131 L27.4573542,83.2797131 L27.4573542,91.6711066 L33.0787308,91.6711066 Z M37.1195873,91.6711066 L37.1195873,87.6152664 L40.0542765,83.2797131 L37.7809257,83.2797131 L36.1138017,85.7971311 L34.4604557,83.2797131 L32.173327,83.2797131 L35.1080162,87.6152664 L35.1080162,91.6711066 L37.1195873,91.6711066 Z M44.7289157,91.6711066 L44.7289157,85.0978484 L46.6027079,85.0978484 L46.6027079,83.2797131 L40.8435524,83.2797131 L40.8435524,85.0978484 L42.6897889,85.0978484 L42.6897889,91.6711066 L44.7289157,91.6711066 Z M49.7617798,91.6711066 L49.7617798,83.2797131 L47.7364309,83.2797131 L47.7364309,91.6711066 L49.7617798,91.6711066 Z M55.8417631,91.9508197 C57.3711082,91.9508197 58.5146726,91.2934939 59.3413456,90.4123975 L57.991113,89.0697746 C57.4124418,89.6431865 56.6684361,90.0068135 55.8417631,90.0068135 C54.3675295,90.0068135 53.4168555,88.8879611 53.4168555,87.4754098 C53.4168555,86.0628586 54.3675295,84.9440061 55.8417631,84.9440061 C56.6684361,84.9440061 57.4124418,85.3076332 57.991113,85.8810451 L59.3826792,84.5384221 C58.5008947,83.6013832 57.4124418,83 55.8417631,83 C53.2239652,83 51.3639509,84.9719775 51.3639509,87.4754098 C51.3639509,89.9788422 53.2239652,91.9508197 55.8417631,91.9508197 Z M63.2030896,91.9508197 C64.7599905,91.9508197 66,90.720082 66,89.2376025 C66,87.9229508 65.3111058,87.0838115 63.8368722,86.6362705 C63.1342002,86.4264857 62.3764166,86.3146004 62.3764166,85.6852459 C62.3764166,85.1398053 62.803531,84.8740779 63.2444232,84.8740779 C63.8093165,84.8740779 64.098652,85.2656762 64.098652,85.7411885 L66,85.7411885 C65.8897769,84.1887807 65.0217702,83 63.1893117,83 C61.6324108,83 60.3786234,84.2307377 60.3786234,85.7132172 C60.3786234,87.1537398 61.1501849,87.8110656 62.5417512,88.3145492 C63.2168675,88.5523053 64.0297626,88.7341189 64.0297626,89.3634734 C64.0297626,89.7970287 63.7128713,90.0907275 63.2030896,90.0907275 C62.7346415,90.0907275 62.3488608,89.6991291 62.3488608,89.2096311 L60.3786234,89.2096311 C60.3786234,90.720082 61.3981868,91.9508197 63.2030896,91.9508197 Z" id="Analytics"></path>
                <path d="M7.01872659,78.6711066 L7.01872659,75.5383197 L9.11985019,78.6711066 L11.6466916,78.6711066 L9.42197253,75.5523053 C10.6441948,75.2446209 11.372035,74.4194672 11.372035,72.9509734 C11.372035,71.3705943 10.2184769,70.2797131 8.44694132,70.2797131 L5,70.2797131 L5,78.6711066 L7.01872659,78.6711066 Z M8.639201,73.9159836 L7.01872659,73.9159836 L7.01872659,72.0279201 L8.58426966,72.0279201 C9.03745318,72.0279201 9.39450687,72.4614754 9.39450687,72.9509734 C9.39450687,73.4404713 9.09238452,73.9159836 8.639201,73.9159836 Z M18.1599786,78.6711066 L18.1599786,76.9089139 L14.5757089,76.9089139 L14.5757089,75.3984631 L17.7479936,75.3984631 L17.7479936,73.6082992 L14.5757089,73.6082992 L14.5757089,72.0978484 L18.0089174,72.0978484 L18.0089174,70.2797131 L12.5569823,70.2797131 L12.5569823,78.6711066 L18.1599786,78.6711066 Z M21.0615302,78.6711066 L21.4597824,77.8039959 L24.7144641,77.8039959 L25.1264491,78.6711066 L27.2962368,78.6711066 L23.2587837,70 L22.90173,70 L18.8917425,78.6711066 L21.0615302,78.6711066 Z M24.0278224,76.335502 L22.0914928,76.335502 L23.0527912,74.2096824 L23.0802568,74.2096824 L24.0278224,76.335502 Z M31.6809345,78.9508197 C33.2052791,78.9508197 34.3451043,78.2934939 35.1690744,77.4123975 L33.8232566,76.0697746 C33.2464776,76.6431865 32.5049046,77.0068135 31.6809345,77.0068135 C30.2115213,77.0068135 29.2639558,75.8879611 29.2639558,74.4754098 C29.2639558,73.0628586 30.2115213,71.9440061 31.6809345,71.9440061 C32.5049046,71.9440061 33.2464776,72.3076332 33.8232566,72.8810451 L35.2102729,71.5384221 C34.3313715,70.6013832 33.2464776,70 31.6809345,70 C29.0716961,70 27.2177635,71.9719775 27.2177635,74.4754098 C27.2177635,76.9788422 29.0716961,78.9508197 31.6809345,78.9508197 Z M39.8696273,78.6711066 L39.8696273,72.0978484 L41.7372927,72.0978484 L41.7372927,70.2797131 L35.9969681,70.2797131 L35.9969681,72.0978484 L37.8371678,72.0978484 L37.8371678,78.6711066 L39.8696273,78.6711066 Z M44.8860353,78.6711066 L44.8860353,70.2797131 L42.8673087,70.2797131 L42.8673087,78.6711066 L44.8860353,78.6711066 Z M49.765115,78.9508197 L53.404316,70.2797131 L51.3031924,70.2797131 L49.6415195,74.3215676 L47.9798466,70.2797131 L45.878723,70.2797131 L49.517924,78.9508197 L49.765115,78.9508197 Z M60,78.6711066 L60,76.9089139 L56.4157303,76.9089139 L56.4157303,75.3984631 L59.588015,75.3984631 L59.588015,73.6082992 L56.4157303,73.6082992 L56.4157303,72.0978484 L59.8489388,72.0978484 L59.8489388,70.2797131 L54.3970037,70.2797131 L54.3970037,78.6711066 L60,78.6711066 Z" id="Reactive"></path>
            </g>
        </g>
    </g>
</svg>